<?xml version="1.0" standalone="no"?>
<svg xmlns:xlink="http://www.w3.org/1999/xlink" id="wave" style="transform:rotate(0deg); transition: 0.3s" viewBox="0 0 1440 490" version="1.1" xmlns="http://www.w3.org/2000/svg"><defs><linearGradient id="sw-gradient-0" x1="0" x2="0" y1="1" y2="0"><stop stop-color="rgba(255, 179, 62, 1)" offset="0%"/><stop stop-color="rgba(255, 179, 11, 1)" offset="100%"/></linearGradient></defs><path style="transform:translate(0, 0px); opacity:1" fill="url(#sw-gradient-0)" d="M0,343L26.7,294C53.3,245,107,147,160,106.2C213.3,65,267,82,320,122.5C373.3,163,427,229,480,228.7C533.3,229,587,163,640,130.7C693.3,98,747,98,800,138.8C853.3,180,907,261,960,277.7C1013.3,294,1067,245,1120,204.2C1173.3,163,1227,131,1280,114.3C1333.3,98,1387,98,1440,130.7C1493.3,163,1547,229,1600,261.3C1653.3,294,1707,294,1760,253.2C1813.3,212,1867,131,1920,89.8C1973.3,49,2027,49,2080,98C2133.3,147,2187,245,2240,253.2C2293.3,261,2347,180,2400,155.2C2453.3,131,2507,163,2560,204.2C2613.3,245,2667,294,2720,269.5C2773.3,245,2827,147,2880,155.2C2933.3,163,2987,278,3040,302.2C3093.3,327,3147,261,3200,204.2C3253.3,147,3307,98,3360,138.8C3413.3,180,3467,310,3520,359.3C3573.3,408,3627,376,3680,326.7C3733.3,278,3787,212,3813,179.7L3840,147L3840,490L3813.3,490C3786.7,490,3733,490,3680,490C3626.7,490,3573,490,3520,490C3466.7,490,3413,490,3360,490C3306.7,490,3253,490,3200,490C3146.7,490,3093,490,3040,490C2986.7,490,2933,490,2880,490C2826.7,490,2773,490,2720,490C2666.7,490,2613,490,2560,490C2506.7,490,2453,490,2400,490C2346.7,490,2293,490,2240,490C2186.7,490,2133,490,2080,490C2026.7,490,1973,490,1920,490C1866.7,490,1813,490,1760,490C1706.7,490,1653,490,1600,490C1546.7,490,1493,490,1440,490C1386.7,490,1333,490,1280,490C1226.7,490,1173,490,1120,490C1066.7,490,1013,490,960,490C906.7,490,853,490,800,490C746.7,490,693,490,640,490C586.7,490,533,490,480,490C426.7,490,373,490,320,490C266.7,490,213,490,160,490C106.7,490,53,490,27,490L0,490Z"/></svg>